# xmcd CD database file
#
# Track frame offsets:
#	150
#	43420
#	90685
#	153536
#	206457
#
# Disc length: 3326 seconds
#
# Revision: 0
# Processed by: cddbd v1.5.1PL2 Copyright (c) Steve Scherf et al.
# Submitted via: CDex 1.51
#
DISCID=3f0cfc05
DTITLE=Elliott Sharp - Quadrature
DYEAR=2005
DGENRE=Jazz
TTITLE0=Escape Velocity
TTITLE1=Angularus
TTITLE2=Paracentric
TTITLE3=Lamina
TTITLE4=Lissajous
EXTD=YEAR: 2005
EXTT0=
EXTT1=
EXTT2=
EXTT3=
EXTT4=
PLAYORDER=
